Starting recording...
Output path: /home/shane/Videos/20241229_010842.mp4
ffmpeg version 5.1.6-0+deb12u1 Copyright (c) 2000-2024 the FFmpeg developers
  built with gcc 12 (Debian 12.2.0-14)
  configuration: --prefix=/usr --extra-version=0+deb12u1 --toolchain=hardened --libdir=/usr/lib/x86_64-linux-gnu --incdir=/usr/include/x86_64-linux-gnu --arch=amd64 --enable-gpl --disable-stripping --enable-gnutls --enable-ladspa --enable-libaom --enable-libass --enable-libbluray --enable-libbs2b --enable-libcaca --enable-libcdio --enable-libcodec2 --enable-libdav1d --enable-libflite --enable-libfontconfig --enable-libfreetype --enable-libfribidi --enable-libglslang --enable-libgme --enable-libgsm --enable-libjack --enable-libmp3lame --enable-libmysofa --enable-libopenjpeg --enable-libopenmpt --enable-libopus --enable-libpulse --enable-librabbitmq --enable-librist --enable-librubberband --enable-libshine --enable-libsnappy --enable-libsoxr --enable-libspeex --enable-libsrt --enable-libssh --enable-libsvtav1 --enable-libtheora --enable-libtwolame --enable-libvidstab --enable-libvorbis --enable-libvpx --enable-libwebp --enable-libx265 --enable-libxml2 --enable-libxvid --enable-libzimg --enable-libzmq --enable-libzvbi --enable-lv2 --enable-omx --enable-openal --enable-opencl --enable-opengl --enable-sdl2 --disable-sndio --enable-libjxl --enable-pocketsphinx --enable-librsvg --enable-libmfx --enable-libdc1394 --enable-libdrm --enable-libiec61883 --enable-chromaprint --enable-frei0r --enable-libx264 --enable-libplacebo --enable-librav1e --enable-shared
  WARNING: library configuration mismatch
  avcodec     configuration: --prefix=/usr --extra-version=0+deb12u1 --toolchain=hardened --libdir=/usr/lib/x86_64-linux-gnu --incdir=/usr/include/x86_64-linux-gnu --arch=amd64 --enable-gpl --disable-stripping --enable-gnutls --enable-ladspa --enable-libaom --enable-libass --enable-libbluray --enable-libbs2b --enable-libcaca --enable-libcdio --enable-libcodec2 --enable-libdav1d --enable-libflite --enable-libfontconfig --enable-libfreetype --enable-libfribidi --enable-libglslang --enable-libgme --enable-libgsm --enable-libjack --enable-libmp3lame --enable-libmysofa --enable-libopenjpeg --enable-libopenmpt --enable-libopus --enable-libpulse --enable-librabbitmq --enable-librist --enable-librubberband --enable-libshine --enable-libsnappy --enable-libsoxr --enable-libspeex --enable-libsrt --enable-libssh --enable-libsvtav1 --enable-libtheora --enable-libtwolame --enable-libvidstab --enable-libvorbis --enable-libvpx --enable-libwebp --enable-libx265 --enable-libxml2 --enable-libxvid --enable-libzimg --enable-libzmq --enable-libzvbi --enable-lv2 --enable-omx --enable-openal --enable-opencl --enable-opengl --enable-sdl2 --disable-sndio --enable-libjxl --enable-pocketsphinx --enable-librsvg --enable-libmfx --enable-libdc1394 --enable-libdrm --enable-libiec61883 --enable-chromaprint --enable-frei0r --enable-libx264 --enable-libplacebo --enable-librav1e --enable-shared --enable-version3 --disable-doc --disable-programs --enable-libaribb24 --enable-libopencore_amrnb --enable-libopencore_amrwb --enable-libtesseract --enable-libvo_amrwbenc --enable-libsmbclient
  libavutil      57. 28.100 / 57. 28.100
  libavcodec     59. 37.100 / 59. 37.100
  libavformat    59. 27.100 / 59. 27.100
  libavdevice    59.  7.100 / 59.  7.100
  libavfilter     8. 44.100 /  8. 44.100
  libswscale      6.  7.100 /  6.  7.100
  libswresample   4.  7.100 /  4.  7.100
  libpostproc    56.  6.100 / 56.  6.100
[x11grab @ 0x5599e20c4040] Stream #0: not enough frames to estimate rate; consider increasing probesize
Input #0, x11grab, from ':0':
  Duration: N/A, start: 1735434522.898096, bitrate: 1988667 kb/s
  Stream #0:0: Video: rawvideo (BGR[0] / 0x524742), bgr0, 1920x1080, 1988667 kb/s, 29.97 fps, 1000k tbr, 1000k tbn
Stream mapping:
  Stream #0:0 -> #0:0 (rawvideo (native) -> h264 (libx264))
Press [q] to stop, [?] for help
[libx264 @ 0x5599e20d1300] using cpu capabilities: MMX2 SSE2Fast SSSE3 SSE4.2 AVX FMA3 BMI2 AVX2 AVX512
[libx264 @ 0x5599e20d1300] profile High 4:4:4 Predictive, level 4.0, 4:4:4, 8-bit
[libx264 @ 0x5599e20d1300] 264 - core 164 r3095 baee400 - H.264/MPEG-4 AVC codec - Copyleft 2003-2022 - http://www.videolan.org/x264.html - options: cabac=1 ref=3 deblock=1:0:0 analyse=0x3:0x113 me=hex subme=7 psy=1 psy_rd=1.00:0.00 mixed_ref=1 me_range=16 chroma_me=1 trellis=1 8x8dct=1 cqm=0 deadzone=21,11 fast_pskip=1 chroma_qp_offset=4 threads=12 lookahead_threads=2 sliced_threads=0 nr=0 decimate=1 interlaced=0 bluray_compat=0 constrained_intra=0 bframes=3 b_pyramid=2 b_adapt=1 b_bias=0 direct=1 weightb=1 open_gop=0 weightp=2 keyint=250 keyint_min=25 scenecut=40 intra_refresh=0 rc_lookahead=40 rc=crf mbtree=1 crf=23.0 qcomp=0.60 qpmin=0 qpmax=69 qpstep=4 ip_ratio=1.40 aq=1:1.00
Output #0, mp4, to '/home/shane/Videos/20241229_010842.mp4':
  Metadata:
    encoder         : Lavf59.27.100
  Stream #0:0: Video: h264 (avc1 / 0x31637661), yuv444p(tv, progressive), 1920x1080, q=2-31, 29.97 fps, 30k tbn
    Metadata:
      encoder         : Lavc59.37.100 libx264
    Side data:
      cpb: bitrate max/min/avg: 0/0/0 buffer size: 0 vbv_delay: N/A
frame=    1 fps=0.0 q=0.0 size=       0kB time=00:00:00.00 bitrate=N/A speed=N/A    frame=   17 fps=0.0 q=0.0 size=       0kB time=00:00:00.00 bitrate=N/A speed=   0x    frame=   32 fps= 32 q=0.0 size=       0kB time=00:00:00.00 bitrate=N/A speed=   0x    frame=   36 fps= 23 q=-1.0 Lsize=     405kB time=00:00:01.10 bitrate=3015.3kbits/s speed=0.703x    
video:404kB audio:0kB subtitle:0kB other streams:0kB global headers:0kB muxing overhead: 0.310335%
[libx264 @ 0x5599e20d1300] frame I:1     Avg QP:17.63  size:404425
[libx264 @ 0x5599e20d1300] frame P:9     Avg QP:25.50  size:   660
[libx264 @ 0x5599e20d1300] frame B:26    Avg QP:32.38  size:   104
[libx264 @ 0x5599e20d1300] consecutive B-frames:  2.8%  0.0%  8.3% 88.9%
[libx264 @ 0x5599e20d1300] mb I  I16..4:  9.4% 48.0% 42.6%
[libx264 @ 0x5599e20d1300] mb P  I16..4:  0.0%  0.0%  0.0%  P16..4:  0.6%  0.0%  0.0%  0.0%  0.0%    skip:99.3%
[libx264 @ 0x5599e20d1300] mb B  I16..4:  0.0%  0.0%  0.0%  B16..8:  0.6%  0.0%  0.0%  direct: 0.0%  skip:99.4%  L0:33.3% L1:66.7% BI: 0.0%
[libx264 @ 0x5599e20d1300] 8x8 transform intra:47.3% inter:70.9%
[libx264 @ 0x5599e20d1300] coded y,u,v intra: 92.5% 1.3% 2.7% inter: 0.0% 0.0% 0.0%
[libx264 @ 0x5599e20d1300] i16 v,h,dc,p: 25% 75%  0%  0%
[libx264 @ 0x5599e20d1300] i8 v,h,dc,ddl,ddr,vr,hd,vl,hu:  6%  5% 19%  6% 45%  4%  4%  6%  6%
[libx264 @ 0x5599e20d1300] i4 v,h,dc,ddl,ddr,vr,hd,vl,hu:  9% 10% 11%  6% 40%  7%  6%  6%  5%
[libx264 @ 0x5599e20d1300] Weighted P-Frames: Y:0.0% UV:0.0%
[libx264 @ 0x5599e20d1300] ref P L0: 59.9%  4.9% 20.7% 14.5%
[libx264 @ 0x5599e20d1300] ref B L0: 70.4% 18.2% 11.4%
[libx264 @ 0x5599e20d1300] ref B L1: 83.3% 16.7%
[libx264 @ 0x5599e20d1300] kb/s:2750.97
Exiting normally, received signal 15.
